# xmcd
#
# Track frame offsets:
#	150
#	14504
#	27385
#	48095
#	69222
#	89535
#	102891
#	120680
#	135241
#	156060
#	168187
#
# Disc length: 2455 seconds
#
# Revision: 0
# Processed by: cddbd v1.5.2PL0 Copyright (c) Steve Scherf et al.
# Submitted via: dBpowerAMP V4.0
#
DISCID=7f09950b
DTITLE=American Relay - Corn and Oil
DYEAR=1900
DGENRE=Blues
TTITLE0=Bonedry
TTITLE1=Curtain Call
TTITLE2=Begin
TTITLE3=Homeland Blues
TTITLE4=Trusst
TTITLE5=Weekend
TTITLE6=Long Gone
TTITLE7=Poor Boy
TTITLE8=Til
TTITLE9=Shake Yo Money Maker
TTITLE10=Uncompelling Me
EXTD=
EXTT0=
EXTT1=
EXTT2=
EXTT3=
EXTT4=
EXTT5=
EXTT6=
EXTT7=
EXTT8=
EXTT9=
EXTT10=
PLAYORDER=
